<?xml version="1.0" encoding="UTF-8" standalone="no"?>
<!DOCTYPE svg PUBLIC "-//W3C//DTD SVG 1.1//EN" "http://www.w3.org/Graphics/SVG/1.1/DTD/svg11.dtd">
<svg width="100%" height="100%" viewBox="0 0 538 112" version="1.1" xmlns="http://www.w3.org/2000/svg" xmlns:xlink="http://www.w3.org/1999/xlink" xml:space="preserve" xmlns:serif="http://www.serif.com/" style="fill-rule:evenodd;clip-rule:evenodd;stroke-linejoin:round;stroke-miterlimit:2;">
    <g transform="matrix(1.10543,0,0,1.10543,-1514,-1418.37)">
        <g transform="matrix(0.357785,0,0,0.357785,1016.82,1057.36)">
            <path d="M1086.71,929.54L1109.19,744.598L1130.85,744.598C1135.18,744.598 1138.57,745.614 1141.01,747.644C1143.44,749.675 1144.66,752.992 1144.66,757.596L1144.66,770.322C1151.07,761.657 1158.2,754.843 1166.05,749.878C1173.9,744.914 1182.3,742.432 1191.24,742.432C1197.01,742.432 1202.29,743.447 1207.08,745.478C1211.86,747.509 1215.99,750.691 1219.46,755.023C1222.94,759.356 1225.65,764.884 1227.59,771.608C1229.53,778.333 1230.5,786.343 1230.5,795.64C1230.5,807.915 1228.62,819.581 1224.88,830.638C1221.13,841.695 1216.1,851.42 1209.78,859.814C1203.46,868.209 1196.18,874.865 1187.92,879.784C1179.66,884.704 1171.02,887.163 1161.99,887.163C1156.12,887.163 1150.89,886.215 1146.29,884.32C1141.68,882.425 1137.62,879.897 1134.1,876.738L1127.6,929.54L1086.71,929.54ZM1174.45,774.248C1171.56,774.248 1168.54,775.354 1165.38,777.565C1162.22,779.777 1159.17,782.801 1156.24,786.637C1153.3,790.473 1150.55,794.963 1147.98,800.108C1145.41,805.253 1143.26,810.758 1141.55,816.625L1137.35,850.473C1139.97,852.549 1142.88,854.038 1146.08,854.94C1149.29,855.843 1152.33,856.294 1155.22,856.294C1160.1,856.294 1164.59,854.67 1168.69,851.42C1172.8,848.171 1176.34,843.906 1179.32,838.626C1182.3,833.346 1184.62,827.321 1186.29,820.552C1187.96,813.782 1188.8,806.877 1188.8,799.837C1188.8,790.901 1187.49,784.403 1184.87,780.341C1182.25,776.279 1178.78,774.248 1174.45,774.248Z" style="fill:white;fill-rule:nonzero;"/>
            <path d="M1238.62,884.997L1255.68,744.598L1277.34,744.598C1281.67,744.598 1285.06,745.614 1287.5,747.644C1289.93,749.675 1291.15,752.992 1291.15,757.596L1291.15,773.571C1296.57,764.004 1302.43,756.648 1308.75,751.503C1315.07,746.358 1321.62,743.786 1328.38,743.786C1332.18,743.786 1335.92,744.643 1339.62,746.358L1332.04,785.215C1327.44,783.229 1323.06,782.236 1318.91,782.236C1311.96,782.236 1305.8,785.373 1300.43,791.646C1295.06,797.919 1290.7,808.005 1287.36,821.905L1279.78,884.997L1238.62,884.997Z" style="fill:white;fill-rule:nonzero;"/>
        </g>
        <g transform="matrix(0.604314,0,0,0.604314,852.104,842.775)">
            <path d="M1285.47,856.024C1290.16,856.024 1294.36,854.602 1298.06,851.759C1301.76,848.916 1304.89,845.034 1307.47,840.115C1310.04,835.196 1312.03,829.465 1313.42,822.921C1314.82,816.377 1315.52,809.405 1315.52,802.003C1315.52,791.804 1314.15,784.515 1311.39,780.138C1308.64,775.76 1304.15,773.571 1297.92,773.571C1293.23,773.571 1289.03,774.993 1285.33,777.836C1281.63,780.679 1278.49,784.538 1275.92,789.412C1273.35,794.286 1271.36,800.018 1269.96,806.606C1268.57,813.195 1267.87,820.191 1267.87,827.592C1267.87,837.611 1269.24,844.854 1272,849.322C1274.75,853.79 1279.24,856.024 1285.47,856.024ZM1281.67,887.163C1273.82,887.163 1266.49,885.854 1259.67,883.237C1252.86,880.619 1246.95,876.806 1241.94,871.796C1236.93,866.787 1233,860.604 1230.16,853.248C1227.32,845.892 1225.89,837.43 1225.89,827.863C1225.89,815.407 1227.95,803.966 1232.06,793.541C1236.16,783.116 1241.69,774.113 1248.64,766.531C1255.59,758.949 1263.65,753.037 1272.81,748.795C1281.97,744.553 1291.6,742.432 1301.71,742.432C1309.57,742.432 1316.88,743.741 1323.65,746.358C1330.42,748.976 1336.31,752.789 1341.31,757.799C1346.32,762.808 1350.27,768.991 1353.16,776.347C1356.05,783.703 1357.49,792.165 1357.49,801.732C1357.49,814.008 1355.44,825.358 1351.33,835.783C1347.23,846.208 1341.7,855.234 1334.75,862.861C1327.8,870.488 1319.74,876.445 1310.58,880.732C1301.42,885.019 1291.78,887.163 1281.67,887.163Z" style="fill:white;fill-rule:nonzero;"/>
            <g transform="matrix(1,0,0,1,-7.10724,-1.61593)">
                <path d="M1477.45,860.356C1472.93,865.32 1468.6,869.517 1464.45,872.947C1460.3,876.377 1456.01,879.13 1451.59,881.206C1447.17,883.282 1442.45,884.794 1437.44,885.742C1432.43,886.689 1426.9,887.163 1420.86,887.163C1412.64,887.163 1405.24,885.764 1398.65,882.966C1392.06,880.168 1386.44,876.197 1381.8,871.052C1377.15,865.907 1373.56,859.679 1371.03,852.368C1368.51,845.057 1367.24,836.843 1367.24,827.727C1367.24,816.264 1369.11,805.388 1372.86,795.098C1376.61,784.809 1381.84,775.783 1388.57,768.021C1395.29,760.258 1403.26,754.098 1412.46,749.54C1421.67,744.982 1431.78,742.703 1442.79,742.703C1452.18,742.703 1460.23,744.305 1466.96,747.509C1473.68,750.713 1479.7,755.745 1485.03,762.605L1471.49,778.175C1470.5,779.168 1469.37,780.048 1468.11,780.815C1466.84,781.582 1465.44,781.966 1463.91,781.966C1462.1,781.966 1460.59,781.582 1459.37,780.815C1458.15,780.048 1456.82,779.235 1455.38,778.378C1453.94,777.52 1452.18,776.708 1450.1,775.941C1448.02,775.174 1445.32,774.79 1441.98,774.79C1437.82,774.79 1433.79,775.986 1429.86,778.378C1425.93,780.77 1422.43,784.222 1419.37,788.735C1416.3,793.248 1413.84,798.799 1411.99,805.388C1410.14,811.977 1409.21,819.468 1409.21,827.863C1409.21,832.556 1409.75,836.64 1410.84,840.115C1411.92,843.59 1413.41,846.479 1415.31,848.78C1417.2,851.082 1419.41,852.819 1421.94,853.993C1424.47,855.166 1427.17,855.753 1430.06,855.753C1434.39,855.753 1437.89,855.144 1440.56,853.925C1443.22,852.707 1445.54,851.375 1447.53,849.931C1449.51,848.487 1451.36,847.156 1453.08,845.937C1454.79,844.719 1456.87,844.109 1459.31,844.109C1460.66,844.109 1461.99,844.425 1463.3,845.057C1464.61,845.689 1465.71,846.546 1466.62,847.629L1477.45,860.356Z" style="fill:white;fill-rule:nonzero;"/>
            </g>
            <g transform="matrix(1,0,0,1,-21.7824,0.465606)">
                <path d="M1609.05,779.122C1609.05,785.531 1607.78,791.398 1605.26,796.723C1602.73,802.048 1598.33,806.764 1592.06,810.871C1585.78,814.978 1577.34,818.476 1566.74,821.364C1556.13,824.252 1542.8,826.509 1526.73,828.133C1526.91,837.701 1529.01,844.696 1533.03,849.119C1537.04,853.541 1542.98,855.753 1550.83,855.753C1554.53,855.753 1557.73,855.437 1560.44,854.805C1563.15,854.173 1565.52,853.361 1567.55,852.368C1569.58,851.375 1571.41,850.337 1573.03,849.254C1574.66,848.171 1576.22,847.133 1577.7,846.14C1579.19,845.147 1580.75,844.335 1582.38,843.703C1584,843.071 1585.85,842.755 1587.93,842.755C1589.28,842.755 1590.59,843.094 1591.85,843.771C1593.12,844.448 1594.24,845.328 1595.24,846.411L1606.07,859.002C1601.1,863.876 1596.25,868.096 1591.51,871.661C1586.78,875.226 1581.9,878.16 1576.89,880.461C1571.88,882.763 1566.56,884.455 1560.92,885.538C1555.28,886.622 1549.11,887.163 1542.43,887.163C1534.13,887.163 1526.5,885.742 1519.55,882.898C1512.6,880.055 1506.62,876.039 1501.62,870.849C1496.61,865.659 1492.73,859.408 1489.97,852.097C1487.22,844.786 1485.84,836.663 1485.84,827.727C1485.84,820.236 1486.68,812.925 1488.35,805.794C1490.02,798.664 1492.41,791.962 1495.52,785.689C1498.64,779.416 1502.45,773.639 1506.96,768.359C1511.48,763.079 1516.55,758.543 1522.19,754.752C1527.84,750.961 1534.02,748.005 1540.74,745.884C1547.47,743.763 1554.62,742.703 1562.2,742.703C1569.69,742.703 1576.35,743.786 1582.17,745.952C1587.99,748.118 1592.89,750.939 1596.86,754.414C1600.83,757.889 1603.86,761.793 1605.93,766.125C1608.01,770.458 1609.05,774.79 1609.05,779.122ZM1559.77,770.999C1552.82,770.999 1546.72,773.775 1541.49,779.326C1536.25,784.876 1532.33,792.481 1529.71,802.139C1538.46,800.785 1545.55,799.363 1550.97,797.874C1556.38,796.385 1560.58,794.76 1563.56,793C1566.54,791.24 1568.54,789.344 1569.58,787.313C1570.62,785.283 1571.14,783.094 1571.14,780.747C1571.14,778.4 1570.24,776.189 1568.43,774.113C1566.62,772.037 1563.74,770.999 1559.77,770.999ZM1610.67,726.862L1583.86,726.862C1582.33,726.862 1580.86,726.591 1579.46,726.05C1578.07,725.508 1577.1,724.876 1576.55,724.154L1567.89,714C1567.44,713.549 1566.96,713.075 1566.47,712.579C1565.97,712.082 1565.5,711.518 1565.05,710.886C1564.32,711.518 1563.67,712.082 1563.08,712.579C1562.5,713.075 1561.93,713.549 1561.39,714L1550.02,724.154C1549.2,724.876 1548.05,725.508 1546.57,726.05C1545.08,726.591 1543.52,726.862 1541.89,726.862L1514,726.862L1548.12,688.005L1586.3,688.005L1610.67,726.862Z" style="fill:white;fill-rule:nonzero;"/>
            </g>
        </g>
        <g transform="matrix(0.604314,0,0,0.604314,865.197,840.822)">
            <path d="M1109.1,798.825L1095.92,744.598L1130.58,744.598C1133.47,744.598 1135.77,745.298 1137.49,746.697C1139.2,748.096 1140.24,749.833 1140.6,751.909L1149.81,814.865C1150.62,820.191 1151.3,825.403 1151.84,830.503C1152.38,835.602 1152.83,840.725 1153.19,845.869C1154.82,840.815 1156.6,835.76 1158.54,830.706C1160.48,825.651 1162.53,820.371 1164.7,814.865L1189.34,751.909C1190.15,749.743 1191.6,747.983 1193.67,746.629C1195.75,745.275 1198.01,744.598 1200.44,744.598L1233.75,744.598L1165.51,884.997L1130.04,884.997L1116.74,830.257L1120.33,801.564C1116.63,800.266 1112.89,799.341 1109.1,798.825Z" style="fill:white;"/>
        </g>
        <g transform="matrix(0.904628,0,0,0.904628,1369.61,1283.1)">
            <path d="M188.421,65.728L184.072,100.482L175.183,100.482C174.148,100.482 173.282,100.348 172.586,100.08C171.89,99.813 171.337,99.447 170.926,98.983C170.516,98.519 170.23,97.965 170.07,97.323C169.909,96.68 169.829,95.984 169.829,95.234L169.829,91.272C167.544,94.413 165.009,96.876 162.225,98.661C159.44,100.446 156.37,101.339 153.015,101.339C151.016,101.339 149.088,100.937 147.232,100.134C145.375,99.331 143.733,98.117 142.305,96.493C140.877,94.868 139.735,92.798 138.878,90.281C138.022,87.765 137.593,84.793 137.593,81.366C137.593,76.332 138.512,71.558 140.351,67.042C142.189,62.526 144.76,58.572 148.062,55.181C151.364,51.79 155.282,49.095 159.815,47.096C164.349,45.096 169.329,44.097 174.755,44.097C177.397,44.097 180.074,44.275 182.787,44.632L183.318,44.731L188.421,65.728ZM159.655,88.22C160.868,88.22 162.046,87.765 163.189,86.854C164.331,85.944 165.411,84.703 166.428,83.133C167.446,81.562 168.383,79.724 169.24,77.617C170.096,75.511 170.828,73.262 171.435,70.87L173.363,55.502L172.399,55.502C169.686,55.502 167.214,56.109 164.983,57.323C162.751,58.537 160.833,60.188 159.226,62.276C157.62,64.364 156.379,66.792 155.505,69.559C154.63,72.325 154.193,75.279 154.193,78.421C154.193,80.205 154.336,81.723 154.621,82.972C154.907,84.222 155.291,85.23 155.772,85.998C156.254,86.765 156.826,87.327 157.486,87.684C158.146,88.041 158.869,88.22 159.655,88.22Z" style="fill:white;"/>
        </g>
        <g transform="matrix(0.406443,0,0,0.35987,945.348,1055.78)">
            <path d="M1449.55,744.035C1455.95,744.905 1462.27,746.467 1468.51,748.66L1462.45,797.124" style="fill:white;"/>
            <path d="M1463.02,792.562C1462.63,795.378 1462.45,797.124 1462.45,797.124C1462.45,797.124 1462.7,795.389 1463.02,792.562C1463.07,792.166 1463.13,791.749 1463.2,791.312C1463.72,787.669 1464.6,782.713 1465.41,777.428C1465.87,774.369 1466.35,771.212 1466.76,768.153C1467.12,765.439 1467.44,762.804 1467.72,760.397C1468.51,753.68 1469.01,748.739 1469.01,748.739C1469.05,748.463 1468.9,748.2 1468.66,748.117C1465.52,747.104 1462.36,746.242 1459.18,745.558C1455.99,744.87 1452.78,744.361 1449.55,744.022L1449.55,744.048C1452.75,744.582 1455.91,745.294 1459.07,746.16C1462.05,746.981 1465.01,747.939 1467.95,749.045C1467.74,750.416 1467.12,754.698 1466.39,760.185C1466.07,762.586 1465.73,765.217 1465.42,767.939C1465.06,771.008 1464.74,774.189 1464.44,777.274C1463.92,782.603 1463.55,787.642 1463.16,791.306C1463.11,791.745 1463.06,792.164 1463.02,792.562Z" style="fill:white;"/>
        </g>
    </g>
</svg>
